<svg xmlns="http://www.w3.org/2000/svg" xmlns:xlink="http://www.w3.org/1999/xlink" width="31.282" height="23" viewBox="0 0 31.282 23"><defs><style>.a,.c{fill:none;}.b{clip-path:url(#a);}.c{stroke:#fff;stroke-linecap:round;stroke-linejoin:round;stroke-width:3px;}</style><clipPath id="a"><rect class="a" width="31.282" height="23"/></clipPath></defs><g class="b"><g transform="translate(12.813 8.671)"><path class="c" d="M2.829,5.658A2.829,2.829,0,1,0,0,2.829,2.829,2.829,0,0,0,2.829,5.658Z"/></g><g transform="translate(1.5 1.5)"><path class="c" d="M20.138,4a8.487,8.487,0,0,1,0,12.008M8.144,16a8.487,8.487,0,0,1,0-12.008M24.141,0a14.144,14.144,0,0,1,0,20m-20,0a14.144,14.144,0,0,1,0-20" transform="translate(0)"/></g></g></svg>